<svg width="512" height="512" viewBox="0 0 512 512" fill="none" xmlns="http://www.w3.org/2000/svg">
<g clip-path="url(#clip0_342_101)">
<path d="M495.574 57.342H413.443L360.905 4.80502C358.792 2.69302 355.928 1.50702 352.941 1.50702C349.954 1.50702 347.089 2.69302 344.977 4.80502L292.44 57.342H208.228C202.008 57.342 196.966 62.384 196.966 68.604V90.267C215.976 101.807 228.243 122.583 228.358 145.505L228.377 149.331L242.171 140.766C253.643 133.642 267.28 132.93 278.907 137.635L341.307 110.619C356.144 104.194 373.388 111.014 379.812 125.857C386.238 140.698 379.416 157.938 364.575 164.363L300.703 192.016C297.5 199.144 292.212 205.429 285.072 209.862C275.267 215.949 222.917 248.454 213.017 254.601C207.968 257.736 202.498 259.627 196.965 260.364V281.557C196.965 287.777 202.007 292.819 208.227 292.819H495.573C501.793 292.819 506.835 287.777 506.835 281.557V68.605H506.836C506.837 62.385 501.794 57.342 495.574 57.342ZM324.295 57.341L352.94 28.696L381.585 57.341H324.295Z" fill="#1E3A8A"/>
<path d="M363.276 133.017C360.805 127.309 354.173 124.685 348.467 127.156L295.509 150.085C300.339 156.205 303.248 163.392 304.06 170.928L357.416 147.827C363.123 145.357 365.748 138.726 363.276 133.017Z" fill="#1E3A8A"/>
<path d="M108.721 0C85.447 0 66.58 18.867 66.58 42.141C66.58 65.537 85.605 84.281 108.721 84.281C131.939 84.281 150.862 65.455 150.862 42.14C150.862 18.867 131.994 0 108.721 0Z" fill="#1E3A8A"/>
<path d="M280.896 164.59C274.972 155.051 262.438 152.117 252.897 158.041L211.716 183.609L211.525 145.59C211.392 119.191 189.806 97.715 163.407 97.715C104.042 97.715 103.645 97.715 54.0331 97.715C27.6341 97.715 6.04806 119.192 5.91506 145.59L5.16506 294.97C5.10806 306.199 14.1661 315.349 25.3951 315.405C25.4311 315.405 25.4641 315.405 25.5001 315.405C36.6821 315.405 45.7751 306.368 45.8311 295.174L46.5821 145.795C46.5931 143.571 48.4021 141.776 50.6271 141.782C52.8521 141.788 54.6501 143.592 54.6501 145.817C54.6511 194.407 54.6591 465.374 54.6591 487.602C54.6591 501.078 65.5821 512.002 79.0591 512.002C92.5361 512.002 103.459 501.079 103.459 487.602V292.572H113.995V487.6C113.995 501.076 124.918 512 138.395 512C151.872 512 162.795 501.077 162.795 487.6C162.795 168.211 162.361 344.769 162.353 144.105C162.353 141.713 164.292 139.775 166.682 139.774C169.074 139.773 171.014 141.71 171.015 144.102C171.015 144.62 170.967 145.182 170.863 145.794L171.237 220.155C171.274 227.518 175.288 234.285 181.732 237.847C188.174 241.41 196.04 241.212 202.296 237.327L274.349 192.589C283.888 186.666 286.82 174.13 280.896 164.59Z" fill="#1E3A8A"/>
</g>
<defs>
<clipPath id="clip0_342_101">
<rect width="512.001" height="512.001" fill="white"/>
</clipPath>
</defs>
</svg>
