<svg id="Calque_1" data-name="Calque 1" xmlns="http://www.w3.org/2000/svg" viewBox="0 0 990.31 393.38"><defs><style>.cls-1,.cls-2,.cls-3{fill:#263d88;}.cls-1{stroke:#fff;}.cls-1,.cls-3{stroke-miterlimit:10;}.cls-3{stroke:#263d88;}</style></defs><title>epcBlue</title><g id="E"><rect class="cls-1" x="114.14" y="152.95" width="78.76" height="13.13"/><rect class="cls-1" x="107.58" y="140.31" width="91.89" height="13.13"/><rect class="cls-1" x="114.14" y="153.44" width="39.38" height="39.38"/><rect class="cls-1" x="114.14" y="179.13" width="11.34" height="28.35"/><rect class="cls-1" x="114.14" y="207.48" width="11.34" height="11.34"/><rect class="cls-1" x="125.48" y="186.56" width="12.44" height="20.92"/><rect class="cls-1" x="149.27" y="163.24" width="9.88" height="9.88"/><circle class="cls-1" cx="106.68" cy="146.87" r="6.56"/><circle class="cls-1" cx="200.2" cy="146.87" r="6.56"/><rect class="cls-1" x="-28.96" y="551.22" width="262.54" height="26.25" transform="translate(-399.61 -26.18) rotate(-50)"/><circle class="cls-1" cx="13.63" cy="359.31" r="13.13"/><rect class="cls-1" x="12.28" y="346.18" width="282.49" height="26.25"/><circle class="cls-1" cx="294.77" cy="359.31" r="13.13"/><polygon class="cls-1" points="270.41 309.87 236.14 309.87 285.18 368.31 305.29 351.43 270.41 309.87"/><polygon class="cls-1" points="134.55 123.28 35.92 5.74 15.81 22.62 100.28 123.28 134.55 123.28"/><circle class="cls-1" cx="25.4" cy="13.63" r="13.13"/><rect class="cls-1" x="24.05" y="0.5" width="282.49" height="26.25"/><circle class="cls-1" cx="306.54" cy="13.63" r="13.13"/><polygon class="cls-1" points="282.49 62.5 248.22 62.5 297.25 4.06 317.37 20.94 282.49 62.5"/><circle class="cls-1" cx="128.58" cy="60.85" r="14.91"/><circle class="cls-1" cx="206.76" cy="75.77" r="14.91"/><circle class="cls-1" cx="119.81" cy="317.93" r="14.91"/><circle class="cls-1" cx="193.64" cy="299.97" r="14.91"/><circle class="cls-1" cx="159.15" cy="262.38" r="14.91"/></g><path class="cls-2" d="M348.22,338v-22h76.84v30.19h-5.48Zm82.33,315.63,71.36,8.23v22H348.22v-22l71.36-8.23ZM400.36,486.22c0-56.54,0-113.63-1.64-170.17h52.69c-1.64,55.44-1.64,112.53-1.64,170.17V519.7c0,56,0,107.59,1.64,164.13H398.72c1.64-55.44,1.64-112.53,1.64-170.17Zm79.05,52.14H425.06V513.11h62.58c67.52,0,93.87-35.67,93.87-87.82,0-53.25-29.65-84-96.06-84H425.06V316.05h70.82c91.12,0,137.77,45,137.77,109.24C633.65,486.77,591.39,538.36,479.41,538.36Z" transform="translate(-3.85 -306.14)"/><g id="C"><path class="cls-1" d="M855.55,540.11a44.47,44.47,0,1,1,6.51-5.21,45.06,45.06,0,0,1-6.51,5.21" transform="translate(-3.85 -306.14)"/><path class="cls-2" d="M968.78,645.38a215.71,215.71,0,0,1-22.43,18.38c-2,1.42-4,2.69-6,4l-3,2-3.12,1.85c-2.1,1.21-4.14,2.5-6.28,3.64l-6.41,3.37a196,196,0,0,1-54.81,18,213.14,213.14,0,0,1-28.74,2.8,216.46,216.46,0,0,1-28.8-1.44,210,210,0,0,1-28.24-5.63,204.12,204.12,0,0,1-27.09-9.71l-6.52-3c-2.17-1-4.26-2.21-6.39-3.31-1.06-.56-2.13-1.11-3.18-1.69l-3.09-1.82L731.54,671c-1-.6-2.07-1.2-3.06-1.88l-6-4c-2-1.32-3.87-2.81-5.82-4.21l-2.89-2.12L711,656.57c-1.85-1.53-3.74-3-5.54-4.57l-5.32-4.81L698.8,646l-1.27-1.27L695,642.19c-3.45-3.31-6.56-7-9.78-10.48-1.55-1.82-3-3.69-4.55-5.53-.75-.94-1.52-1.84-2.25-2.79l-2.12-2.89-2.12-2.89c-.7-1-1.43-1.91-2.06-2.92l-4-6c-.68-1-1.26-2-1.87-3.05l-1.82-3.08-1.82-3.09L661,596.33c-1.09-2.12-2.26-4.2-3.28-6.36l-3-6.49a202.16,202.16,0,0,1-9.59-26.91,206.72,206.72,0,0,1-5.52-28A193.43,193.43,0,0,1,641,471.8,205.89,205.89,0,0,1,648,444.23,200,200,0,0,1,658.83,418l3.31-6.28c1.12-2.08,2.39-4.09,3.57-6.13l1.82-3.05,2-3,2-3c.65-1,1.29-2,2-2.92a192.69,192.69,0,0,1,88-68.57,200.82,200.82,0,0,1,27-8.14,206.3,206.3,0,0,1,27.86-4.09,212.64,212.64,0,0,1,28.11,0,207.6,207.6,0,0,1,27.77,4.15A202,202,0,0,1,899,325.24a196.54,196.54,0,0,1,25.31,12l6,3.56c2,1.21,3.91,2.56,5.87,3.82l2.92,1.94,2.82,2.07c1.86,1.4,3.79,2.72,5.6,4.19a209.24,209.24,0,0,1,20.68,18.79,208.41,208.41,0,0,0-21-18.42c-1.83-1.43-3.77-2.72-5.65-4.08l-2.85-2-2.94-1.88c-2-1.23-3.89-2.54-5.9-3.7l-6.06-3.45a193.91,193.91,0,0,0-25.35-11.51,200.19,200.19,0,0,0-26.73-7.64,206,206,0,0,0-27.53-3.64,208.77,208.77,0,0,0-27.74.44,202.09,202.09,0,0,0-27.34,4.48,196.9,196.9,0,0,0-26.34,8.43,188.11,188.11,0,0,0-84.76,68.29c-.68.92-1.28,1.9-1.9,2.87l-1.84,2.9-1.85,2.9-1.71,3c-1.12,2-2.31,4-3.37,6l-3.1,6.13a192.39,192.39,0,0,0-10.09,25.53A199.4,199.4,0,0,0,648,473a186.49,186.49,0,0,0-.48,54.61,197.8,197.8,0,0,0,5.74,26.71,191.37,191.37,0,0,0,9.59,25.54l3,6.14c1,2,2.16,4,3.23,6l1.64,3,1.78,2.9,1.78,2.91c.6,1,1.17,2,1.83,2.87l3.85,5.62c.62,1,1.32,1.85,2,2.75l2.06,2.71,2.06,2.71c.71.89,1.46,1.74,2.18,2.62,1.48,1.72,2.91,3.48,4.41,5.18,3.12,3.3,6.12,6.71,9.46,9.79l2.44,2.37,1.23,1.18,1.28,1.11,5.12,4.48c1.73,1.46,3.55,2.82,5.31,4.24l2.67,2.1,2.78,2c1.86,1.29,3.66,2.67,5.56,3.89l5.73,3.65c.94.63,1.93,1.18,2.91,1.73l2.95,1.68,3,1.68c1,.53,2,1,3,1.54,2,1,4,2.08,6.08,3l6.19,2.75a193.47,193.47,0,0,0,25.64,8.71,198.79,198.79,0,0,0,26.61,4.84,203,203,0,0,0,27,.9,200.79,200.79,0,0,0,26.8-3.06,194.25,194.25,0,0,0,26-6.95,188.71,188.71,0,0,0,24.69-10.69l5.9-3.22c2-1.09,3.83-2.32,5.76-3.48l2.86-1.75,2.77-1.9c1.84-1.29,3.73-2.49,5.52-3.84a201.78,201.78,0,0,0,20.48-17.36Z" transform="translate(-3.85 -306.14)"/><circle class="cls-3" cx="959.73" cy="333.84" r="30.08"/></g></svg>