<svg width="264" height="365" viewBox="0 0 264 365" fill="none" xmlns="http://www.w3.org/2000/svg">
<path d="M224.555 37.883C199.28 12.962 165.817 -0.494002 130.278 0.0139976C96.0839 0.495998 63.8089 14.157 39.3989 38.479C14.9879 62.802 1.21294 95.027 0.611943 129.219C-0.0150565 164.893 13.4159 198.524 38.4329 223.916C63.0059 248.857 76.5379 281.342 76.5379 315.386C76.5379 336.806 93.9649 354.234 115.385 354.234H116.096C116.051 354.6 116.02 354.97 116.02 355.349C116.02 360.32 120.049 364.349 125.02 364.349H139.327C144.298 364.349 148.327 360.32 148.327 355.349C148.327 354.971 148.296 354.6 148.251 354.234H148.962C170.382 354.234 187.809 336.807 187.809 315.385C187.809 281.351 201.356 248.355 224.976 224.859C249.984 199.982 263.757 166.856 263.757 131.584C263.756 96.086 249.834 62.809 224.555 37.883ZM148.962 336.234H115.385C106.418 336.234 98.778 330.533 95.841 322.573H168.505C165.568 330.532 157.929 336.234 148.962 336.234ZM170.21 304.572H94.1379C93.8289 300.406 93.3329 296.272 92.6719 292.174H171.67C171.014 296.276 170.519 300.411 170.21 304.572ZM212.281 212.097C195.059 229.229 182.534 250.759 175.715 274.174H88.5839C81.7119 250.879 69.0319 229.327 51.2539 211.283C29.6599 189.365 18.0659 160.333 18.6079 129.535C19.6739 68.897 69.8829 18.868 130.531 18.012C131.083 18.004 131.632 18 132.183 18C162.232 18 190.492 29.576 211.916 50.7C233.738 72.216 245.756 100.941 245.756 131.583C245.756 162.029 233.868 190.623 212.281 212.097Z" fill="#1E3A8A"/>
<path d="M199.605 118.697H195.184C193.442 108.08 189.061 98.133 182.344 89.641L185.173 86.812C188.688 83.297 188.688 77.599 185.173 74.084C181.658 70.569 175.96 70.569 172.445 74.084L169.319 77.21C160.58 70.935 150.448 66.999 139.694 65.744V61.742C139.694 56.771 135.665 52.742 130.694 52.742C125.723 52.742 121.694 56.771 121.694 61.742V66.163C111.081 67.905 101.131 72.286 92.6379 79.003L89.8079 76.174C86.2929 72.659 80.5949 72.659 77.0799 76.174C73.5649 79.689 73.5649 85.387 77.0799 88.902L80.2059 92.028C73.9309 100.767 69.9949 110.899 68.7399 121.653H64.7389C59.7679 121.653 55.7389 125.682 55.7389 130.653C55.7389 135.624 59.7679 139.653 64.7389 139.653H69.1599C70.9019 150.27 75.2829 160.217 81.9999 168.709L79.1709 171.538C75.6559 175.053 75.6559 180.751 79.1709 184.266C80.9279 186.023 83.2319 186.902 85.5349 186.902C87.8379 186.902 90.1409 186.023 91.8989 184.266L95.0249 181.14C103.764 187.415 113.896 191.351 124.65 192.606V196.608C124.65 201.579 128.679 205.608 133.65 205.608C138.621 205.608 142.65 201.579 142.65 196.608V192.189C153.266 190.447 163.213 186.064 171.705 179.347L174.535 182.177C176.292 183.934 178.596 184.813 180.899 184.813C183.202 184.813 185.505 183.934 187.263 182.177C190.778 178.662 190.778 172.964 187.263 169.449L184.137 166.323C190.412 157.584 194.348 147.452 195.603 136.698H199.604C204.575 136.698 208.604 132.669 208.604 127.698C208.605 122.726 204.576 118.697 199.605 118.697ZM164.309 161.919C155.562 170.503 143.949 175.17 131.742 175.051C119.488 174.936 108.012 170.055 99.4289 161.309C90.8449 152.562 86.1809 140.997 86.2969 128.743C86.4129 116.489 91.2929 105.013 100.039 96.43C108.68 87.95 120.071 83.296 132.162 83.296C132.309 83.296 132.458 83.296 132.606 83.298C144.86 83.413 156.336 88.294 164.919 97.04C173.503 105.787 178.167 117.352 178.051 129.606C177.935 141.86 173.055 153.336 164.309 161.919Z" fill="#1E3A8A"/>
<path d="M132.482 96.262C123.682 96.153 115.394 99.525 109.119 105.683C102.844 111.841 99.3429 120.074 99.2609 128.866C99.1779 137.657 102.524 145.954 108.682 152.229C114.84 158.504 123.073 162.005 131.865 162.087C131.971 162.088 132.076 162.088 132.182 162.088C140.855 162.088 149.029 158.749 155.228 152.666C161.503 146.508 165.004 138.275 165.086 129.483C165.168 120.693 161.823 112.395 155.665 106.12C149.507 99.845 141.274 96.344 132.482 96.262ZM142.619 139.819C139.776 142.61 136.031 144.14 132.033 144.088C128.05 144.05 124.319 142.464 121.529 139.621C118.739 136.778 117.223 133.018 117.26 129.035C117.298 125.052 118.884 121.321 121.727 118.531C124.536 115.774 128.239 114.261 132.169 114.261C132.217 114.261 132.265 114.261 132.313 114.261C136.296 114.299 140.027 115.885 142.817 118.728C145.607 121.571 147.123 125.331 147.086 129.314C147.049 133.298 145.463 137.029 142.619 139.819Z" fill="#1E3A8A"/>
</svg>
