<svg width="513" height="513" viewBox="0 0 513 513" fill="none" xmlns="http://www.w3.org/2000/svg">
<path d="M307.204 255.997C324.441 255.997 338.598 243.103 340.868 226.472L372.057 203.091C375.829 200.266 376.597 194.916 373.764 191.144C370.939 187.372 365.589 186.596 361.817 189.437L340.066 205.753C336.815 195.351 327.206 187.731 315.738 187.731H281.605C267.491 187.731 256.005 199.217 256.005 213.331C256.005 199.217 244.519 187.731 230.405 187.731H196.27C184.801 187.731 175.193 195.351 171.941 205.753L150.19 189.437C146.427 186.612 141.068 187.38 138.243 191.144C135.41 194.916 136.178 200.266 139.95 203.091L171.139 226.472C173.409 243.103 187.557 255.997 204.803 255.997H221.87C240.695 255.997 256.003 240.688 256.003 221.864C256.003 240.689 271.312 255.997 290.136 255.997H307.204ZM238.937 221.864C238.937 231.276 231.274 238.931 221.87 238.931H204.803C195.399 238.931 187.736 231.277 187.736 221.864V213.331C187.736 208.629 191.559 204.798 196.269 204.798H230.402C235.112 204.798 238.935 208.629 238.935 213.331V221.864H238.937ZM273.07 221.864V213.331C273.07 208.629 276.893 204.798 281.603 204.798H315.736C320.446 204.798 324.269 208.629 324.269 213.331V221.864C324.269 231.276 316.606 238.931 307.202 238.931H290.135C280.733 238.93 273.07 231.276 273.07 221.864Z" fill="#1E3A8A"/>
<path d="M511.748 501.39L503.027 466.634C498.649 453.476 472.742 411.15 324.271 409.998V401.064C324.271 396.354 320.457 392.531 315.738 392.531C311.019 392.531 307.205 396.354 307.205 401.064V418.131C307.205 418.191 307.239 418.242 307.239 418.302C307.239 418.353 307.205 418.396 307.205 418.456C307.171 423.661 305.456 469.332 256.005 469.332C206.554 469.332 204.839 423.346 204.805 418.132V401.065C204.805 396.355 200.991 392.532 196.272 392.532C191.553 392.532 187.739 396.355 187.739 401.065V409.684C77.162 410.553 21.789 428.2 8.79303 467.257L0.260031 501.39C-0.891969 505.964 1.89803 510.597 6.47203 511.741C11.029 512.902 15.671 510.103 16.814 505.537L25.16 472.027C35.076 442.288 88.477 427.432 188.3 426.689C191.398 451.12 208.003 486.397 256.003 486.397C303.977 486.397 320.592 451.334 323.706 427.031C440.664 427.893 481.325 455.498 486.659 471.404L495.192 505.537C496.165 509.411 499.638 511.997 503.461 511.997C504.144 511.997 504.843 511.92 505.535 511.741C510.109 510.597 512.891 505.964 511.748 501.39Z" fill="#1E3A8A"/>
<path d="M58.636 42.595L254.903 68.195C255.27 68.238 255.637 68.263 256.004 68.263C256.371 68.263 256.738 68.237 257.105 68.195L443.737 43.85V73.478C438.387 79.494 426.67 94.504 426.67 110.931C426.67 129.713 441.979 136.531 452.27 136.531C462.561 136.531 477.87 129.713 477.87 110.931C477.87 94.504 466.154 79.494 460.803 73.478V34.13C460.803 33.004 460.564 31.937 460.163 30.947C460.018 30.597 459.77 30.324 459.583 30C459.25 29.403 458.917 28.814 458.457 28.319C458.158 28.003 457.8 27.79 457.459 27.534C456.973 27.141 456.495 26.766 455.932 26.493C455.514 26.288 455.07 26.203 454.618 26.075C454.2 25.947 453.824 25.725 453.372 25.665L257.105 0.0650012C256.371 -0.0199988 255.637 -0.0199988 254.903 0.0650012L58.636 25.665C54.386 26.22 51.204 29.846 51.204 34.13C51.204 38.414 54.387 42.041 58.636 42.595ZM460.804 110.93C460.804 117.74 456.187 119.335 452.271 119.463C448.354 119.335 443.738 117.739 443.738 110.93C443.738 103.847 448.09 95.945 452.271 90.117C456.452 95.946 460.804 103.848 460.804 110.93ZM256.004 17.132L386.299 34.13L256.004 51.129L125.708 34.13L256.004 17.132Z" fill="#1E3A8A"/>
<path d="M275.673 309.603C275.4 309.85 268.966 315.73 256.004 315.73C243.23 315.73 236.795 310.021 236.352 309.612C233.033 306.361 227.682 306.386 224.371 309.697C221.034 313.034 221.034 318.427 224.371 321.763C225.497 322.889 235.976 332.797 256.004 332.797C276.032 332.797 286.511 322.89 287.637 321.763C290.931 318.469 290.922 313.196 287.688 309.85C284.437 306.506 279.078 306.412 275.673 309.603Z" fill="#1E3A8A"/>
<path d="M119.47 172.123C109.537 175.647 102.403 185.136 102.403 196.264V230.397C102.403 242.301 110.569 252.336 121.603 255.186C126.168 268.652 138.781 305.166 145.974 319.544C159.525 346.654 197.951 392.53 256.003 392.53C314.055 392.53 352.481 346.655 366.032 319.544C373.226 305.165 385.838 268.651 390.403 255.186C401.437 252.336 409.603 242.301 409.603 230.397V196.264C409.603 185.137 402.469 175.647 392.536 172.123V162.131C392.536 157.421 388.722 153.598 384.003 153.598C379.284 153.598 375.47 157.421 375.47 162.131V179.198C375.47 183.908 379.284 187.731 384.003 187.731C388.713 187.731 392.536 191.562 392.536 196.264V230.397C392.536 235.099 388.713 238.93 384.003 238.93C380.325 238.93 377.065 241.277 375.913 244.767C375.734 245.27 358.932 295.583 350.774 311.916C349.468 314.51 318.279 375.464 256.003 375.464C193.727 375.464 162.537 314.51 161.232 311.916C153.066 295.583 136.272 245.271 136.093 244.767C134.932 241.277 131.681 238.93 128.003 238.93C123.293 238.93 119.47 235.099 119.47 230.397V196.264C119.47 191.562 123.293 187.731 128.003 187.731C132.722 187.731 136.536 183.908 136.536 179.198V162.13C136.536 157.42 132.722 153.597 128.003 153.597C123.284 153.597 119.47 157.42 119.47 162.13V172.123V172.123Z" fill="#1E3A8A"/>
<path d="M128.004 59.73C123.285 59.73 119.471 63.553 119.471 68.263V127.996C119.471 131.23 121.297 134.183 124.19 135.633C126.357 136.708 178.086 162.129 256.004 162.129C333.922 162.129 385.651 136.708 387.818 135.633C390.711 134.182 392.537 131.23 392.537 127.996V68.264C392.537 63.554 388.723 59.731 384.004 59.731C379.285 59.731 375.471 63.554 375.471 68.264V122.476C361.357 128.458 316.693 145.064 256.004 145.064C195.315 145.064 150.651 128.458 136.537 122.476V68.264C136.537 63.553 132.723 59.73 128.004 59.73Z" fill="#1E3A8A"/>
</svg>
